<svg xmlns="http://www.w3.org/2000/svg" width="25" height="32" viewBox="0 0 25 32">
    <path fill="#D0021B" fill-rule="evenodd" d="M24.96 0c-2.194 4.827-3.135 8.382-2.822 10.667.712 5.213 3.21 7.939 2.821 9.333-1.091 3.912-4.13 7.912-9.115 12 1.416-3.378 1.69-5.511.823-6.4 0-1.333-2.38 1.067-4.984 1.067-2.435 0-2.435-2.49 0-7.467-3.197-.175-5.283.981-6.257 3.467-.493 1.256-.493 3.923 0 8C1.086 26.222-.651 21.333.217 16c0-1.415 1.826-5.81 12.283-11.733C14.284 3.256 18.437 1.834 24.96 0z"/>
</svg>
